<?xml version="1.0" encoding="UTF-8" standalone="no"?>
<!DOCTYPE svg PUBLIC "-//W3C//DTD SVG 1.1//EN" "http://www.w3.org/Graphics/SVG/1.1/DTD/svg11.dtd">
<svg width="100%" height="100%" viewBox="0 0 1500 500" version="1.1" xmlns="http://www.w3.org/2000/svg"
     xml:space="preserve"
     style="fill-rule:evenodd;clip-rule:evenodd;stroke-linejoin:round;stroke-miterlimit:2;">
    <g transform="matrix(1.77935,0,0,2.14942,-482.009,-212.457)">
        <path d="M621.612,187.387C621.612,185.787 620.043,184.487 618.11,184.487C616.176,184.487 614.607,185.787 614.607,187.387L614.607,205.504C614.607,207.105 616.176,208.404 618.11,208.404C620.043,208.404 621.612,207.105 621.612,205.504L621.612,187.387Z" style="fill:rgb(236,239,244);"/>
    </g>
    <g transform="matrix(1.18254,-1.32954,1.60606,1.42848,-414.071,783.695)">
        <path d="M621.612,187.387C621.612,185.787 620.043,184.487 618.11,184.487C616.176,184.487 614.607,185.787 614.607,187.387L614.607,205.504C614.607,207.105 616.176,208.404 618.11,208.404C620.043,208.404 621.612,207.105 621.612,205.504L621.612,187.387Z" style="fill:rgb(236,239,244);"/>
    </g>
    <g transform="matrix(1,0,0,1,-213.258,28.4234)">
        <text x="623.015px" y="419.402px" style="font-family:'TeXGyreAdventor-Regular', 'TeX Gyre Adventor';font-size:100px;fill:rgb(94,129,172);">... mor<tspan x="920.215px " y="419.402px ">e</tspan> than a r<tspan x="1387.91px 1450.91px " y="419.402px 419.402px ">ew</tspan>ind</text>
    </g>
    <g transform="matrix(1,0,0,1,-177.871,93.212)">
        <g transform="matrix(279.167,0,0,279.167,192.685,205.308)">
            <path d="M0.577,-0.501C0.577,-0.655 0.491,-0.739 0.259,-0.739L0.076,-0.739L0.076,-0L0.15,-0L0.15,-0.672L0.254,-0.672C0.426,-0.672 0.502,-0.627 0.502,-0.504C0.502,-0.371 0.432,-0.335 0.225,-0.335L0.474,-0L0.566,-0L0.359,-0.276C0.501,-0.291 0.577,-0.37 0.577,-0.501Z" style="fill:rgb(236,239,244);fill-rule:nonzero;"/>
        </g>
        <g transform="matrix(279.167,0,0,279.167,362.139,205.308)">
            <path d="M0.611,-0.249C0.611,-0.443 0.488,-0.56 0.326,-0.56C0.167,-0.56 0.042,-0.435 0.042,-0.276C0.042,-0.114 0.169,0.013 0.331,0.013C0.455,0.013 0.562,-0.076 0.597,-0.18L0.52,-0.18C0.489,-0.105 0.412,-0.055 0.329,-0.055C0.217,-0.055 0.122,-0.141 0.116,-0.249L0.611,-0.249ZM0.537,-0.316L0.118,-0.316C0.138,-0.421 0.221,-0.492 0.325,-0.492C0.431,-0.492 0.512,-0.425 0.537,-0.316Z" style="fill:rgb(236,239,244);fill-rule:nonzero;"/>
        </g>
        <g transform="matrix(279.167,0,0,279.167,536.618,205.308)">
            <path d="M0.327,-0.48L0.327,-0.547L0.204,-0.547L0.204,-0.739L0.13,-0.739L0.13,-0.547L0.012,-0.547L0.012,-0.48L0.13,-0.48L0.13,-0L0.204,-0L0.204,-0.48L0.327,-0.48Z" style="fill:rgb(236,239,244);fill-rule:nonzero;"/>
        </g>
        <g transform="matrix(279.167,0,0,279.167,631.256,205.308)">
            <path d="M0.292,-0.487L0.292,-0.56C0.213,-0.556 0.166,-0.529 0.137,-0.469L0.137,-0.547L0.063,-0.547L0.063,-0L0.137,-0L0.137,-0.319C0.137,-0.421 0.189,-0.477 0.292,-0.487L0.292,-0.487Z" style="fill:rgb(236,239,244);fill-rule:nonzero;"/>
        </g>
        <g transform="matrix(279.167,0,0,279.167,889.764,205.308)">
            <path d="M0.361,-0.157C0.361,-0.224 0.33,-0.27 0.266,-0.297C0.183,-0.331 0.179,-0.333 0.163,-0.341C0.129,-0.358 0.113,-0.381 0.113,-0.413C0.113,-0.457 0.148,-0.492 0.192,-0.492C0.24,-0.492 0.272,-0.464 0.272,-0.412L0.347,-0.412C0.347,-0.5 0.281,-0.56 0.193,-0.56C0.104,-0.56 0.038,-0.495 0.038,-0.406C0.038,-0.367 0.052,-0.333 0.079,-0.308C0.101,-0.287 0.103,-0.286 0.18,-0.255C0.259,-0.223 0.286,-0.205 0.286,-0.15C0.286,-0.095 0.247,-0.055 0.194,-0.055C0.133,-0.055 0.091,-0.094 0.091,-0.161L0.018,-0.161C0.018,-0.055 0.089,0.013 0.194,0.013C0.292,0.013 0.361,-0.057 0.361,-0.157L0.361,-0.157Z" style="fill:rgb(236,239,244);fill-rule:nonzero;"/>
        </g>
        <g transform="matrix(279.167,0,0,279.167,998.081,205.308)">
            <path d="M0.64,-0.272C0.64,-0.435 0.515,-0.56 0.352,-0.56C0.259,-0.56 0.183,-0.522 0.137,-0.453L0.137,-0.547L0.063,-0.547L0.063,0.192L0.137,0.192L0.137,-0.094C0.185,-0.024 0.259,0.013 0.35,0.013C0.513,0.013 0.64,-0.112 0.64,-0.272L0.64,-0.272ZM0.565,-0.272C0.565,-0.149 0.472,-0.055 0.35,-0.055C0.225,-0.055 0.132,-0.15 0.132,-0.276C0.132,-0.397 0.228,-0.492 0.349,-0.492C0.472,-0.492 0.565,-0.398 0.565,-0.272L0.565,-0.272Z" style="fill:rgb(236,239,244);fill-rule:nonzero;"/>
        </g>
        <g transform="matrix(279.167,0,0,279.167,1188.47,205.308)">
            <path d="M0.611,-0.249C0.611,-0.443 0.488,-0.56 0.326,-0.56C0.167,-0.56 0.042,-0.435 0.042,-0.276C0.042,-0.114 0.169,0.013 0.331,0.013C0.455,0.013 0.562,-0.076 0.597,-0.18L0.52,-0.18C0.489,-0.105 0.412,-0.055 0.329,-0.055C0.217,-0.055 0.122,-0.141 0.116,-0.249L0.611,-0.249ZM0.537,-0.316L0.118,-0.316C0.138,-0.421 0.221,-0.492 0.325,-0.492C0.431,-0.492 0.512,-0.425 0.537,-0.316Z" style="fill:rgb(236,239,244);fill-rule:nonzero;"/>
        </g>
        <g transform="matrix(279.167,0,0,279.167,1369.93,205.308)">
            <path d="M0.608,-0.161L0.524,-0.161C0.467,-0.085 0.414,-0.055 0.337,-0.055C0.214,-0.055 0.117,-0.152 0.117,-0.273C0.117,-0.396 0.212,-0.492 0.334,-0.492C0.415,-0.492 0.482,-0.453 0.524,-0.381L0.607,-0.381C0.563,-0.491 0.458,-0.56 0.335,-0.56C0.171,-0.56 0.042,-0.434 0.042,-0.275C0.042,-0.112 0.172,0.013 0.34,0.013C0.453,0.013 0.542,-0.036 0.608,-0.161Z" style="fill:rgb(236,239,244);fill-rule:nonzero;"/>
        </g>
        <g transform="matrix(279.167,0,0,279.167,1550.55,205.308)">
            <path d="M0.327,-0.48L0.327,-0.547L0.204,-0.547L0.204,-0.739L0.13,-0.739L0.13,-0.547L0.012,-0.547L0.012,-0.48L0.13,-0.48L0.13,-0L0.204,-0L0.204,-0.48L0.327,-0.48Z" style="fill:rgb(236,239,244);fill-rule:nonzero;"/>
        </g>
    </g>
    <path d="M540.838,218.1C542.405,174.937 576.697,142.204 620.885,142.204C666.682,142.204 700.151,175.952 700.151,222.586C700.151,268.383 667.24,302.131 622.561,302.131C590.555,302.131 564.534,286.664 550.975,262.209L575.362,262.209C586.12,275.307 602.52,283.183 622.002,283.183C655.233,283.183 679.249,257.772 679.249,222.866C679.249,187.401 654.395,161.152 620.885,161.152C588.292,161.152 563.494,185.316 561.78,218.1L540.838,218.1Z" style="fill:rgb(236,239,244);fill-rule:nonzero;"/>
    <g transform="matrix(1,0,0,-0.96124,-0.322749,455.42)">
        <path d="M554.362,217.302L583.902,246.957L524.823,246.957L554.362,217.302Z" style="fill:rgb(236,239,244);"/>
    </g>
</svg>
